<svg width="163" height="27" viewBox="0 0 163 27" fill="none" xmlns="http://www.w3.org/2000/svg">
<g clip-path="url(#clip0_16_46)">
<path d="M23 0H4.59998V2H23V0Z" fill="white"/>
<path d="M20.5 4H7V6H20.5V4Z" fill="white"/>
<path d="M24.3 10.3999H25.2V8.3999H2.2V10.3999H3.1L0 15.8999L0.3 16.3999C1.3 17.9999 3 19.0999 4.9 19.0999C6.8 19.0999 8.6 18.0999 9.5 16.3999L9.8 15.8999L7.9 12.5999L6.2 13.5999L7.5 15.7999C6.9 16.5999 5.9 16.9999 4.9 16.9999C3.9 16.9999 3 16.5999 2.3 15.8999L5.5 10.3999H12.8V24.5999H10.3V26.5999H17.3V24.5999H14.8V10.3999H22L25.2 15.8999C24.6 16.6999 23.6 17.0999 22.6 17.0999C21.6 17.0999 20.7 16.5999 20 15.8999L21.3 13.6999L19.6 12.6999L17.7 15.9999L18 16.4999C19 18.0999 20.7 19.1999 22.6 19.1999C24.5 19.1999 26.3 18.1999 27.2 16.4999L27.5 15.9999L24.3 10.3999Z" fill="white"/>
<path d="M52.366 15.94C52.366 16.1747 52.3513 16.4093 52.322 16.644C52.2927 16.8787 52.2633 17.1207 52.234 17.37C52.1753 17.8833 52.1093 18.3967 52.036 18.91C51.9627 19.4233 51.904 19.9367 51.86 20.45C51.86 20.5967 51.8307 20.7213 51.772 20.824C51.6987 20.9267 51.5887 20.9853 51.442 21C51.2953 21.0293 51.1633 21.044 51.046 21.044C50.87 21.044 50.694 21.0367 50.518 21.022C50.342 21.022 50.1587 21.022 49.968 21.022C49.044 21.0073 48.12 21 47.196 21C46.272 21 45.348 21 44.424 21H41.916C41.5933 21 41.2707 21 40.948 21C40.64 21 40.3247 21.0073 40.002 21.022C39.8407 21.0367 39.6793 21.044 39.518 21.044C39.3567 21.0587 39.1953 21.066 39.034 21.066C38.902 21.066 38.7847 21.0293 38.682 20.956C38.594 20.8827 38.55 20.78 38.55 20.648C38.55 20.5013 38.594 20.3913 38.682 20.318C38.7847 20.2447 38.8947 20.208 39.012 20.208C39.1293 20.208 39.2467 20.2153 39.364 20.23C39.496 20.2447 39.6207 20.252 39.738 20.252C39.9727 20.252 40.156 20.2227 40.288 20.164C40.42 20.0907 40.486 19.922 40.486 19.658C40.486 17.3847 40.486 15.1113 40.486 12.838C40.486 10.55 40.4787 8.27667 40.464 6.018C40.464 5.842 40.4273 5.732 40.354 5.688C40.2953 5.62933 40.1853 5.6 40.024 5.6C39.8627 5.6 39.694 5.60733 39.518 5.622C39.3567 5.63667 39.188 5.644 39.012 5.644C38.9093 5.644 38.814 5.60733 38.726 5.534C38.638 5.46067 38.594 5.36533 38.594 5.248C38.594 4.96933 38.7407 4.83 39.034 4.83C39.1953 4.83 39.364 4.83733 39.54 4.852C39.716 4.86667 39.892 4.88133 40.068 4.896C40.42 4.91067 40.7647 4.92533 41.102 4.94C41.454 4.94 41.806 4.94 42.158 4.94C42.4513 4.94 42.7373 4.94 43.016 4.94C43.3093 4.94 43.5953 4.93267 43.874 4.918C44.0793 4.90333 44.2773 4.88867 44.468 4.874C44.6587 4.84467 44.8493 4.83 45.04 4.83C45.2747 4.83 45.392 4.95467 45.392 5.204C45.392 5.30667 45.3627 5.40933 45.304 5.512C45.2453 5.6 45.1573 5.644 45.04 5.644C44.8493 5.644 44.6587 5.63667 44.468 5.622C44.292 5.60733 44.1013 5.6 43.896 5.6C43.7347 5.6 43.632 5.644 43.588 5.732C43.5587 5.80533 43.544 5.91533 43.544 6.062C43.544 6.60467 43.5367 7.14 43.522 7.668C43.522 8.196 43.522 8.73133 43.522 9.274C43.522 10.9753 43.522 12.684 43.522 14.4C43.5367 16.116 43.544 17.8247 43.544 19.526C43.544 19.6727 43.5807 19.812 43.654 19.944C43.7273 20.076 43.8373 20.164 43.984 20.208C44.1747 20.252 44.3727 20.274 44.578 20.274C44.7833 20.274 44.9813 20.274 45.172 20.274C46.272 20.274 47.2253 20.164 48.032 19.944C48.8387 19.724 49.5207 19.3207 50.078 18.734C50.65 18.1327 51.1193 17.2673 51.486 16.138C51.53 16.006 51.5887 15.8887 51.662 15.786C51.7353 15.6687 51.8453 15.61 51.992 15.61C52.08 15.61 52.1607 15.6393 52.234 15.698C52.322 15.7567 52.366 15.8373 52.366 15.94ZM61.7143 13.278C61.7143 12.9847 61.6996 12.6327 61.6703 12.222C61.6409 11.8113 61.5676 11.4153 61.4503 11.034C61.3476 10.638 61.1789 10.308 60.9443 10.044C60.7096 9.78 60.3869 9.648 59.9763 9.648C59.5803 9.648 59.2283 9.78 58.9203 10.044C58.6269 10.2933 58.3776 10.616 58.1723 11.012C57.9669 11.3933 57.8056 11.7967 57.6883 12.222C57.5709 12.6327 57.4829 12.9993 57.4243 13.322C57.6736 13.322 57.9156 13.3293 58.1503 13.344C58.3996 13.344 58.6416 13.344 58.8763 13.344C59.8296 13.344 60.7756 13.322 61.7143 13.278ZM64.8823 18.14C64.8823 18.184 64.8676 18.25 64.8383 18.338C64.8236 18.4113 64.8016 18.47 64.7723 18.514C64.6696 18.7487 64.4789 19.02 64.2003 19.328C63.9216 19.6213 63.6723 19.8487 63.4523 20.01C62.4696 20.758 61.3329 21.132 60.0423 21.132C58.8836 21.132 57.8789 20.89 57.0283 20.406C56.1776 19.9073 55.5249 19.218 55.0703 18.338C54.6156 17.458 54.3883 16.446 54.3883 15.302C54.3883 14.158 54.6083 13.124 55.0483 12.2C55.5029 11.2613 56.1483 10.5207 56.9843 9.978C57.8349 9.42067 58.8543 9.142 60.0423 9.142C61.4063 9.142 62.4989 9.516 63.3203 10.264C64.1416 11.012 64.5523 12.0827 64.5523 13.476C64.5523 13.8573 64.3763 14.048 64.0243 14.048C63.3789 14.048 62.7336 14.0407 62.0883 14.026C61.4429 14.0113 60.7976 14.004 60.1523 14.004C59.6829 14.004 59.2136 14.004 58.7443 14.004C58.2749 14.004 57.8056 14.0113 57.3363 14.026C57.2923 14.466 57.2703 14.9133 57.2703 15.368C57.2703 15.7787 57.3216 16.2627 57.4243 16.82C57.5416 17.3773 57.7103 17.92 57.9303 18.448C58.1649 18.976 58.4656 19.416 58.8323 19.768C59.1989 20.1053 59.6463 20.274 60.1743 20.274C60.8343 20.274 61.3843 20.1787 61.8243 19.988C62.2789 19.7973 62.6823 19.526 63.0343 19.174C63.3863 18.822 63.7456 18.404 64.1123 17.92C64.1563 17.8613 64.2003 17.8173 64.2443 17.788C64.3029 17.744 64.3689 17.722 64.4423 17.722C64.5449 17.722 64.6403 17.766 64.7283 17.854C64.8309 17.9273 64.8823 18.0227 64.8823 18.14ZM74.4066 21.902C74.4066 21.33 74.2819 20.9193 74.0326 20.67C73.7979 20.4207 73.4826 20.2593 73.0866 20.186C72.6906 20.1127 72.2726 20.054 71.8326 20.01L70.1826 19.834C69.8892 20.1713 69.6912 20.5087 69.5886 20.846C69.4859 21.1833 69.4346 21.5647 69.4346 21.99C69.4346 22.87 69.6766 23.4713 70.1606 23.794C70.6592 24.1167 71.3046 24.278 72.0966 24.278C72.8592 24.278 73.4312 24.0653 73.8126 23.64C74.2086 23.2293 74.4066 22.65 74.4066 21.902ZM73.4606 12.75C73.4606 12.486 73.4532 12.178 73.4386 11.826C73.4239 11.474 73.3726 11.1293 73.2846 10.792C73.1966 10.4547 73.0499 10.176 72.8446 9.956C72.6392 9.736 72.3532 9.626 71.9866 9.626C71.5466 9.626 71.2019 9.758 70.9526 10.022C70.7179 10.2713 70.5492 10.594 70.4466 10.99C70.3439 11.3713 70.2779 11.7673 70.2486 12.178C70.2339 12.5887 70.2266 12.948 70.2266 13.256C70.2266 13.5787 70.2412 13.9233 70.2706 14.29C70.2999 14.6567 70.3659 15.0013 70.4686 15.324C70.5859 15.6467 70.7619 15.9107 70.9966 16.116C71.2312 16.3213 71.5612 16.424 71.9866 16.424C72.3532 16.424 72.6319 16.3213 72.8226 16.116C73.0279 15.896 73.1746 15.6247 73.2626 15.302C73.3506 14.9647 73.4019 14.6273 73.4166 14.29C73.4459 13.9527 73.4606 13.652 73.4606 13.388V12.75ZM77.8166 9.736C77.8166 9.912 77.6992 10.044 77.4646 10.132C77.2446 10.22 76.9952 10.2787 76.7166 10.308C76.4526 10.3227 76.2546 10.33 76.1226 10.33C75.9612 10.33 75.7926 10.33 75.6166 10.33C75.4552 10.3153 75.2939 10.3007 75.1326 10.286C75.3672 10.4913 75.5652 10.7627 75.7266 11.1C75.9026 11.4373 76.0346 11.7967 76.1226 12.178C76.2252 12.5447 76.2766 12.882 76.2766 13.19C76.2766 13.9527 76.0639 14.6127 75.6386 15.17C75.2279 15.7273 74.6926 16.1527 74.0326 16.446C73.3726 16.7393 72.6906 16.886 71.9866 16.886C71.8399 16.886 71.6859 16.886 71.5246 16.886C71.3632 16.886 71.2019 16.8787 71.0406 16.864C70.8206 17.0547 70.6372 17.2527 70.4906 17.458C70.3586 17.6487 70.2926 17.9127 70.2926 18.25C70.2926 18.3673 70.3512 18.492 70.4686 18.624C70.5859 18.7413 70.6959 18.8147 70.7986 18.844C71.0186 18.9173 71.2532 18.9687 71.5026 18.998C71.7519 19.0127 71.9866 19.0347 72.2066 19.064C72.7786 19.0933 73.3799 19.1227 74.0106 19.152C74.6412 19.1813 75.2279 19.306 75.7706 19.526C76.3279 19.7313 76.7679 20.1273 77.0906 20.714C77.1786 20.8607 77.2299 21.0073 77.2446 21.154C77.2739 21.3007 77.2886 21.462 77.2886 21.638C77.2886 22.2687 77.1052 22.7893 76.7386 23.2C76.3866 23.6253 75.9319 23.9627 75.3746 24.212C74.8319 24.4613 74.2526 24.6373 73.6366 24.74C73.0352 24.8573 72.4852 24.916 71.9866 24.916C71.6199 24.916 71.1506 24.8867 70.5786 24.828C70.0066 24.784 69.4346 24.6813 68.8626 24.52C68.3052 24.3587 67.8359 24.124 67.4546 23.816C67.0732 23.508 66.8826 23.09 66.8826 22.562C66.8826 22.1513 66.9779 21.7773 67.1686 21.44C67.3592 21.1027 67.5939 20.7947 67.8726 20.516C68.1659 20.2227 68.4519 19.9587 68.7306 19.724C68.5546 19.68 68.3272 19.592 68.0486 19.46C67.7699 19.3133 67.6306 19.13 67.6306 18.91C67.6306 18.7487 67.7039 18.5507 67.8506 18.316C67.9972 18.0813 68.1806 17.8393 68.4006 17.59C68.6206 17.3407 68.8332 17.1133 69.0386 16.908C69.2586 16.688 69.4272 16.5193 69.5446 16.402C68.8699 16.0353 68.3419 15.566 67.9606 14.994C67.5792 14.4073 67.3886 13.7253 67.3886 12.948C67.3886 12.1413 67.6086 11.4667 68.0486 10.924C68.5032 10.3667 69.0752 9.94867 69.7646 9.67C70.4686 9.37667 71.1799 9.23 71.8986 9.23C72.1039 9.23 72.3166 9.24467 72.5366 9.274C72.7566 9.30333 72.9692 9.34 73.1746 9.384C73.4092 9.44267 73.6439 9.50867 73.8786 9.582C74.1132 9.64067 74.3552 9.67 74.6046 9.67C75.1619 9.67 75.7266 9.58933 76.2986 9.428C76.6359 9.34 76.8926 9.17867 77.0686 8.944C77.2446 8.70933 77.3986 8.592 77.5306 8.592C77.6626 8.592 77.7432 8.67267 77.7726 8.834C77.8166 8.98067 77.8312 9.14933 77.8166 9.34C77.8166 9.516 77.8166 9.648 77.8166 9.736ZM86.1932 18.668C86.1492 17.9787 86.1199 17.2893 86.1052 16.6C86.0906 15.896 86.0906 15.192 86.1052 14.488C85.5039 14.5907 84.9172 14.7813 84.3452 15.06C83.7879 15.324 83.3259 15.6833 82.9592 16.138C82.5926 16.5927 82.4092 17.172 82.4092 17.876C82.4092 18.1693 82.4459 18.4847 82.5192 18.822C82.6072 19.1593 82.7539 19.4453 82.9592 19.68C83.1792 19.9 83.4726 20.01 83.8392 20.01C84.1032 20.01 84.3819 19.9367 84.6752 19.79C84.9686 19.6287 85.2472 19.4453 85.5112 19.24C85.7899 19.0347 86.0172 18.844 86.1932 18.668ZM90.7252 19.966C90.7252 20.0247 90.6959 20.0907 90.6372 20.164C90.5932 20.2373 90.5492 20.296 90.5052 20.34C90.0506 20.868 89.4639 21.132 88.7452 21.132C88.1146 21.132 87.6086 20.9927 87.2272 20.714C86.8459 20.4353 86.5526 20.0027 86.3472 19.416C85.8779 19.9147 85.3719 20.3107 84.8292 20.604C84.3012 20.8973 83.6779 21.044 82.9592 21.044C82.4459 21.044 81.9252 20.934 81.3972 20.714C80.8839 20.4793 80.4512 20.1493 80.0992 19.724C79.7619 19.2987 79.5932 18.8073 79.5932 18.25C79.5932 17.6927 79.7326 17.2013 80.0112 16.776C80.3046 16.336 80.6712 15.962 81.1112 15.654C81.5512 15.3313 81.9986 15.0673 82.4532 14.862C83.0399 14.6127 83.6412 14.422 84.2572 14.29C84.8732 14.1433 85.4892 13.9967 86.1052 13.85V13.762C86.1052 13.498 86.0979 13.146 86.0832 12.706C86.0832 12.2513 86.0392 11.804 85.9512 11.364C85.8632 10.9093 85.7166 10.528 85.5112 10.22C85.3059 9.89733 85.0052 9.736 84.6092 9.736C84.1546 9.736 83.7439 9.868 83.3772 10.132C83.0252 10.396 82.7759 10.748 82.6292 11.188C82.5999 11.32 82.5779 11.452 82.5632 11.584C82.5486 11.7013 82.5266 11.826 82.4972 11.958C82.4679 12.1927 82.3286 12.354 82.0792 12.442C81.8446 12.5153 81.6246 12.552 81.4192 12.552C81.1699 12.552 80.9279 12.5007 80.6932 12.398C80.4586 12.2807 80.3412 12.068 80.3412 11.76C80.3412 11.6427 80.3559 11.54 80.3852 11.452C80.4292 11.3493 80.4732 11.2467 80.5172 11.144C80.7519 10.5867 81.1039 10.176 81.5732 9.912C82.0426 9.648 82.5559 9.472 83.1132 9.384C83.6852 9.296 84.2279 9.252 84.7412 9.252C85.9439 9.252 86.9339 9.57467 87.7112 10.22C88.4886 10.8653 88.8772 11.8187 88.8772 13.08V16.402C88.8626 16.8127 88.8552 17.238 88.8552 17.678C88.8699 18.1033 88.8919 18.5287 88.9212 18.954C88.9506 19.2033 89.0092 19.4453 89.0972 19.68C89.1852 19.9 89.3832 20.01 89.6912 20.01C89.8966 20.01 90.0652 19.966 90.1972 19.878C90.3439 19.79 90.4759 19.746 90.5932 19.746C90.6519 19.746 90.6886 19.7753 90.7032 19.834C90.7179 19.8927 90.7252 19.9367 90.7252 19.966ZM98.49 20.714C98.49 20.9487 98.3727 21.066 98.138 21.066C97.6834 21.066 97.236 21.044 96.796 21C96.356 20.9707 95.9087 20.956 95.454 20.956C94.9847 20.956 94.508 20.9707 94.024 21C93.5547 21.044 93.0854 21.066 92.616 21.066C92.5134 21.066 92.44 21.0293 92.396 20.956C92.352 20.868 92.33 20.78 92.33 20.692C92.33 20.5307 92.4034 20.428 92.55 20.384C92.7114 20.34 92.8874 20.3253 93.078 20.34C93.2834 20.3547 93.4374 20.362 93.54 20.362C93.8627 20.362 94.024 20.186 94.024 19.834V18.052C94.024 16.116 94.024 14.1873 94.024 12.266C94.024 10.33 94.024 8.394 94.024 6.458C94.024 6.29667 94.0094 6.09867 93.98 5.864C93.9507 5.61467 93.8114 5.49 93.562 5.49C93.386 5.49 93.21 5.51933 93.034 5.578C92.8727 5.622 92.704 5.644 92.528 5.644C92.308 5.644 92.198 5.52667 92.198 5.292C92.198 5.13067 92.2934 5.01333 92.484 4.94C92.6747 4.88133 92.8727 4.83733 93.078 4.808C93.298 4.77867 93.5034 4.742 93.694 4.698C94.134 4.59533 94.5667 4.49267 94.992 4.39C95.432 4.27267 95.8647 4.16267 96.29 4.06C96.334 4.04533 96.378 4.038 96.422 4.038C96.466 4.02333 96.51 4.016 96.554 4.016C96.642 4.016 96.7227 4.038 96.796 4.082C96.884 4.11133 96.928 4.18467 96.928 4.302C96.928 6.88333 96.9207 9.472 96.906 12.068C96.8914 14.664 96.884 17.2527 96.884 19.834C96.884 20.0833 96.9574 20.2447 97.104 20.318C97.2507 20.3913 97.4267 20.4207 97.632 20.406C97.8374 20.3767 98.0207 20.362 98.182 20.362C98.3874 20.362 98.49 20.4793 98.49 20.714ZM112.102 16.952C112.102 17.8027 111.911 18.514 111.529 19.086C111.148 19.6433 110.642 20.0833 110.011 20.406C109.395 20.7287 108.721 20.956 107.987 21.088C107.254 21.22 106.535 21.286 105.831 21.286C105.289 21.286 104.768 21.2053 104.269 21.044C103.771 20.8973 103.265 20.7287 102.751 20.538C102.502 20.45 102.253 20.3987 102.003 20.384C101.769 20.3547 101.519 20.34 101.255 20.34C101.211 19.988 101.167 19.6433 101.123 19.306C101.079 18.954 101.028 18.602 100.969 18.25C100.94 18.0007 100.903 17.7587 100.859 17.524C100.815 17.2893 100.793 17.0547 100.793 16.82C100.793 16.6147 100.83 16.446 100.903 16.314C100.991 16.182 101.145 16.116 101.365 16.116C101.571 16.116 101.725 16.16 101.827 16.248C101.945 16.3213 102.033 16.4533 102.091 16.644C102.194 16.908 102.275 17.1793 102.333 17.458C102.407 17.7367 102.495 18.0153 102.597 18.294C102.847 18.9833 103.25 19.5333 103.807 19.944C104.379 20.3547 105.047 20.56 105.809 20.56C106.836 20.56 107.621 20.2667 108.163 19.68C108.721 19.0787 108.999 18.272 108.999 17.26C108.999 16.6733 108.875 16.1893 108.625 15.808C108.376 15.412 108.053 15.0747 107.657 14.796C107.261 14.5173 106.836 14.2533 106.381 14.004C105.956 13.7693 105.523 13.5493 105.083 13.344C104.643 13.1387 104.211 12.926 103.785 12.706C103.316 12.4567 102.854 12.1487 102.399 11.782C101.959 11.4007 101.593 10.968 101.299 10.484C101.021 9.98533 100.881 9.45 100.881 8.878C100.881 7.91 101.131 7.11067 101.629 6.48C102.143 5.84933 102.795 5.38 103.587 5.072C104.394 4.764 105.23 4.61 106.095 4.61C106.653 4.61 107.188 4.69067 107.701 4.852C108.229 4.99867 108.743 5.17467 109.241 5.38C109.403 5.43867 109.549 5.48267 109.681 5.512C109.828 5.54133 109.982 5.556 110.143 5.556C110.261 5.556 110.371 5.556 110.474 5.556C110.576 5.54133 110.679 5.52667 110.781 5.512C110.825 5.98133 110.877 6.45067 110.935 6.92C110.994 7.38933 111.053 7.85867 111.111 8.328C111.126 8.40133 111.133 8.482 111.133 8.57C111.148 8.64333 111.156 8.71667 111.156 8.79C111.156 8.99533 111.112 9.186 111.023 9.362C110.935 9.52333 110.767 9.604 110.517 9.604C110.327 9.604 110.187 9.56 110.099 9.472C110.011 9.384 109.931 9.25933 109.857 9.098C109.681 8.64333 109.513 8.196 109.351 7.756C109.19 7.316 108.955 6.90533 108.647 6.524C108.325 6.11333 107.921 5.81267 107.437 5.622C106.953 5.41667 106.455 5.314 105.941 5.314C105.443 5.314 105.025 5.45333 104.687 5.732C104.35 5.996 104.101 6.34067 103.939 6.766C103.778 7.19133 103.697 7.63133 103.697 8.086C103.697 8.79 103.881 9.34 104.247 9.736C104.629 10.1173 105.098 10.4693 105.655 10.792C105.963 10.9533 106.271 11.1147 106.579 11.276C106.902 11.4227 107.217 11.5693 107.525 11.716C108.259 12.0533 108.97 12.464 109.66 12.948C110.363 13.4173 110.943 13.982 111.397 14.642C111.867 15.2873 112.102 16.0573 112.102 16.952ZM121.776 13.278C121.776 12.9847 121.761 12.6327 121.732 12.222C121.703 11.8113 121.629 11.4153 121.512 11.034C121.409 10.638 121.241 10.308 121.006 10.044C120.771 9.78 120.449 9.648 120.038 9.648C119.642 9.648 119.29 9.78 118.982 10.044C118.689 10.2933 118.439 10.616 118.234 11.012C118.029 11.3933 117.867 11.7967 117.75 12.222C117.633 12.6327 117.545 12.9993 117.486 13.322C117.735 13.322 117.977 13.3293 118.212 13.344C118.461 13.344 118.703 13.344 118.938 13.344C119.891 13.344 120.837 13.322 121.776 13.278ZM124.944 18.14C124.944 18.184 124.929 18.25 124.9 18.338C124.885 18.4113 124.863 18.47 124.834 18.514C124.731 18.7487 124.541 19.02 124.262 19.328C123.983 19.6213 123.734 19.8487 123.514 20.01C122.531 20.758 121.395 21.132 120.104 21.132C118.945 21.132 117.941 20.89 117.09 20.406C116.239 19.9073 115.587 19.218 115.132 18.338C114.677 17.458 114.45 16.446 114.45 15.302C114.45 14.158 114.67 13.124 115.11 12.2C115.565 11.2613 116.21 10.5207 117.046 9.978C117.897 9.42067 118.916 9.142 120.104 9.142C121.468 9.142 122.561 9.516 123.382 10.264C124.203 11.012 124.614 12.0827 124.614 13.476C124.614 13.8573 124.438 14.048 124.086 14.048C123.441 14.048 122.795 14.0407 122.15 14.026C121.505 14.0113 120.859 14.004 120.214 14.004C119.745 14.004 119.275 14.004 118.806 14.004C118.337 14.004 117.867 14.0113 117.398 14.026C117.354 14.466 117.332 14.9133 117.332 15.368C117.332 15.7787 117.383 16.2627 117.486 16.82C117.603 17.3773 117.772 17.92 117.992 18.448C118.227 18.976 118.527 19.416 118.894 19.768C119.261 20.1053 119.708 20.274 120.236 20.274C120.896 20.274 121.446 20.1787 121.886 19.988C122.341 19.7973 122.744 19.526 123.096 19.174C123.448 18.822 123.807 18.404 124.174 17.92C124.218 17.8613 124.262 17.8173 124.306 17.788C124.365 17.744 124.431 17.722 124.504 17.722C124.607 17.722 124.702 17.766 124.79 17.854C124.893 17.9273 124.944 18.0227 124.944 18.14ZM139.506 20.692C139.506 20.9267 139.389 21.044 139.154 21.044C138.729 21.044 138.296 21.0293 137.856 21C137.431 20.9853 137.006 20.978 136.58 20.978C136.17 20.978 135.752 20.9853 135.326 21C134.901 21.0293 134.476 21.044 134.05 21.044C133.948 21.044 133.874 21.0073 133.83 20.934C133.786 20.846 133.764 20.758 133.764 20.67C133.764 20.45 133.882 20.34 134.116 20.34C134.248 20.34 134.38 20.3473 134.512 20.362C134.644 20.362 134.776 20.362 134.908 20.362C135.128 20.362 135.238 20.2667 135.238 20.076C135.238 18.844 135.238 17.612 135.238 16.38C135.253 15.148 135.26 13.916 135.26 12.684C135.26 12.288 135.224 11.8773 135.15 11.452C135.092 11.0267 134.945 10.6673 134.71 10.374C134.49 10.0807 134.124 9.934 133.61 9.934C133.288 9.934 132.95 10.0513 132.598 10.286C132.261 10.5207 131.953 10.7993 131.674 11.122C131.41 11.4447 131.22 11.7453 131.102 12.024V19.812C131.102 19.944 131.117 20.0687 131.146 20.186C131.19 20.3033 131.293 20.362 131.454 20.362C131.572 20.362 131.689 20.362 131.806 20.362C131.938 20.3473 132.063 20.34 132.18 20.34C132.254 20.34 132.327 20.3693 132.4 20.428C132.474 20.4867 132.51 20.5527 132.51 20.626C132.51 20.9047 132.393 21.044 132.158 21.044C131.748 21.044 131.337 21.0293 130.926 21C130.53 20.956 130.12 20.934 129.694 20.934C129.254 20.934 128.807 20.956 128.352 21C127.912 21.0293 127.465 21.044 127.01 21.044C126.908 21.044 126.834 21.0073 126.79 20.934C126.746 20.846 126.724 20.758 126.724 20.67C126.724 20.45 126.842 20.34 127.076 20.34C127.208 20.34 127.34 20.3473 127.472 20.362C127.604 20.362 127.744 20.362 127.89 20.362C128.096 20.362 128.213 20.318 128.242 20.23C128.272 20.142 128.286 20.0027 128.286 19.812V16.622C128.286 15.7273 128.286 14.8327 128.286 13.938C128.286 13.0433 128.286 12.1487 128.286 11.254C128.286 11.0927 128.264 10.9167 128.22 10.726C128.176 10.5207 128.044 10.418 127.824 10.418C127.678 10.418 127.531 10.4253 127.384 10.44C127.252 10.4547 127.113 10.462 126.966 10.462C126.878 10.462 126.776 10.4473 126.658 10.418C126.556 10.374 126.504 10.2933 126.504 10.176C126.504 10.088 126.534 10.022 126.592 9.978C126.651 9.934 126.717 9.90467 126.79 9.89C126.937 9.846 127.091 9.81667 127.252 9.802C127.414 9.78733 127.568 9.76533 127.714 9.736C128.096 9.66267 128.47 9.582 128.836 9.494C129.218 9.39133 129.592 9.28867 129.958 9.186C130.017 9.15667 130.076 9.13467 130.134 9.12C130.193 9.09067 130.252 9.076 130.31 9.076C130.428 9.076 130.53 9.186 130.618 9.406C130.721 9.626 130.802 9.86067 130.86 10.11C130.934 10.3593 130.978 10.5353 130.992 10.638C131.418 10.2567 131.931 9.91933 132.532 9.626C133.134 9.318 133.728 9.164 134.314 9.164C135.297 9.164 136.06 9.28867 136.602 9.538C137.16 9.78733 137.556 10.2053 137.79 10.792C138.025 11.364 138.142 12.134 138.142 13.102C138.142 14.246 138.135 15.39 138.12 16.534C138.106 17.678 138.098 18.822 138.098 19.966C138.098 20.1127 138.142 20.2227 138.23 20.296C138.333 20.3547 138.458 20.384 138.604 20.384C138.707 20.384 138.802 20.3767 138.89 20.362C138.993 20.3473 139.096 20.34 139.198 20.34C139.404 20.34 139.506 20.4573 139.506 20.692ZM149.953 17.766C149.953 18.4553 149.806 19.02 149.513 19.46C149.219 19.8853 148.831 20.2153 148.347 20.45C147.863 20.6847 147.335 20.846 146.763 20.934C146.205 21.022 145.648 21.066 145.091 21.066C144.724 21.066 144.365 21.0293 144.013 20.956C143.661 20.8827 143.309 20.802 142.957 20.714C142.81 20.6847 142.656 20.6553 142.495 20.626C142.333 20.582 142.172 20.56 142.011 20.56C141.952 20.3547 141.864 20.054 141.747 19.658C141.644 19.2473 141.541 18.8513 141.439 18.47C141.351 18.074 141.307 17.7953 141.307 17.634C141.307 17.4727 141.358 17.37 141.461 17.326C141.563 17.282 141.673 17.26 141.791 17.26C141.967 17.26 142.099 17.326 142.187 17.458C142.407 17.766 142.583 18.0887 142.715 18.426C142.847 18.7633 143.052 19.0787 143.331 19.372C143.536 19.592 143.829 19.8193 144.211 20.054C144.607 20.274 144.959 20.384 145.267 20.384C145.927 20.384 146.418 20.23 146.741 19.922C147.078 19.614 147.247 19.1227 147.247 18.448C147.247 17.9933 147.107 17.612 146.829 17.304C146.55 16.996 146.191 16.7173 145.751 16.468C145.325 16.2187 144.871 15.9767 144.387 15.742C143.903 15.4927 143.441 15.2213 143.001 14.928C142.575 14.6347 142.223 14.2827 141.945 13.872C141.666 13.4467 141.527 12.9333 141.527 12.332C141.527 11.584 141.732 10.9753 142.143 10.506C142.553 10.0367 143.074 9.692 143.705 9.472C144.35 9.252 144.995 9.142 145.641 9.142C145.934 9.142 146.22 9.164 146.499 9.208C146.777 9.252 147.056 9.33267 147.335 9.45C147.467 9.494 147.643 9.55267 147.863 9.626C148.097 9.68467 148.281 9.714 148.413 9.714C148.603 9.714 148.787 9.692 148.963 9.648C148.992 10.0587 149.036 10.4693 149.095 10.88C149.168 11.2907 149.212 11.7013 149.227 12.112V12.178C149.241 12.3247 149.197 12.4493 149.095 12.552C149.007 12.64 148.897 12.684 148.765 12.684C148.618 12.684 148.508 12.6547 148.435 12.596C148.376 12.5373 148.317 12.4493 148.259 12.332C148.068 11.9067 147.877 11.5033 147.687 11.122C147.511 10.726 147.269 10.4033 146.961 10.154C146.667 9.90467 146.242 9.78 145.685 9.78C145.098 9.78 144.665 10.0073 144.387 10.462C144.108 10.9167 143.969 11.4007 143.969 11.914C143.969 12.3247 144.123 12.6767 144.431 12.97C144.739 13.2633 145.054 13.498 145.377 13.674C145.773 13.8793 146.227 14.1067 146.741 14.356C147.269 14.6053 147.775 14.8913 148.259 15.214C148.743 15.5367 149.146 15.9107 149.469 16.336C149.791 16.7467 149.953 17.2233 149.953 17.766ZM159.463 13.278C159.463 12.9847 159.448 12.6327 159.419 12.222C159.39 11.8113 159.316 11.4153 159.199 11.034C159.096 10.638 158.928 10.308 158.693 10.044C158.458 9.78 158.136 9.648 157.725 9.648C157.329 9.648 156.977 9.78 156.669 10.044C156.376 10.2933 156.126 10.616 155.921 11.012C155.716 11.3933 155.554 11.7967 155.437 12.222C155.32 12.6327 155.232 12.9993 155.173 13.322C155.422 13.322 155.664 13.3293 155.899 13.344C156.148 13.344 156.39 13.344 156.625 13.344C157.578 13.344 158.524 13.322 159.463 13.278ZM162.631 18.14C162.631 18.184 162.616 18.25 162.587 18.338C162.572 18.4113 162.55 18.47 162.521 18.514C162.418 18.7487 162.228 19.02 161.949 19.328C161.67 19.6213 161.421 19.8487 161.201 20.01C160.218 20.758 159.082 21.132 157.791 21.132C156.632 21.132 155.628 20.89 154.777 20.406C153.926 19.9073 153.274 19.218 152.819 18.338C152.364 17.458 152.137 16.446 152.137 15.302C152.137 14.158 152.357 13.124 152.797 12.2C153.252 11.2613 153.897 10.5207 154.733 9.978C155.584 9.42067 156.603 9.142 157.791 9.142C159.155 9.142 160.248 9.516 161.069 10.264C161.89 11.012 162.301 12.0827 162.301 13.476C162.301 13.8573 162.125 14.048 161.773 14.048C161.128 14.048 160.482 14.0407 159.837 14.026C159.192 14.0113 158.546 14.004 157.901 14.004C157.432 14.004 156.962 14.004 156.493 14.004C156.024 14.004 155.554 14.0113 155.085 14.026C155.041 14.466 155.019 14.9133 155.019 15.368C155.019 15.7787 155.07 16.2627 155.173 16.82C155.29 17.3773 155.459 17.92 155.679 18.448C155.914 18.976 156.214 19.416 156.581 19.768C156.948 20.1053 157.395 20.274 157.923 20.274C158.583 20.274 159.133 20.1787 159.573 19.988C160.028 19.7973 160.431 19.526 160.783 19.174C161.135 18.822 161.494 18.404 161.861 17.92C161.905 17.8613 161.949 17.8173 161.993 17.788C162.052 17.744 162.118 17.722 162.191 17.722C162.294 17.722 162.389 17.766 162.477 17.854C162.58 17.9273 162.631 18.0227 162.631 18.14Z" fill="white"/>
</g>
<defs>
<clipPath id="clip0_16_46">
<rect width="162.6" height="26.6" fill="white"/>
</clipPath>
</defs>
</svg>
